<?xml version="1.0"?>
<svg version="1.1" xmlns="http://www.w3.org/2000/svg" width="200" height="54" style=""><path fill="#" d="M15.8935546875,40.41796875q0.029296875-0.615234375,0.029296875-1.201171875q0-2.1240234375,0.15380859375-4.2333984375t0.21240234375-4.2333984375q0.087890625-2.431640625,0.1611328125-4.8193359375t0.29296875-4.8046875q0.05859375-0.6005859375,0.34423828125-0.78369140625t0.85693359375-0.18310546875q0.263671875,0,0.703125,0.1025390625t0.439453125,0.498046875q0.205078125,0.029296875,0.41015625,0.029296875q0.3076171875,0,0.6298828125-0.05859375q0.52734375-0.087890625,1.07666015625-0.19775390625t1.09130859375-0.21240234375t1.0400390625-0.1025390625q0.1171875,0,0.32958984375,0.0146484375t0.4248046875,0.087890625t0.35888671875,0.18310546875t0.146484375,0.28564453125t-0.34423828125,0.31494140625t-0.90087890625,0.24169921875t-1.201171875,0.17578125t-1.259765625,0.12451171875t-1.09130859375,0.08056640625t-0.68115234375,0.029296875l-0.029296875,5.5078125l0.029296875,2.7392578125q0.4541015625,0,1.3623046875-0.029296875q0.3662109375-0.0146484375,0.732421875-0.0146484375q0.556640625,0,1.142578125,0.029296875q0.966796875,0.0439453125,1.7431640625,0.17578125t0.9814453125,0.46875q0,0.205078125-0.21240234375,0.32958984375t-0.47607421875,0.18310546875t-0.53466796875,0.0732421875t-0.38818359375,0.0146484375q-1.083984375,0-2.1826171875-0.0439453125t-2.16796875-0.17578125q0,1.8017578125-0.09521484375,3.57421875t-0.09521484375,3.57421875q0,0.7763671875,0.0146484375,1.53076171875t0.17578125,1.50146484375q0.3955078125-0.029296875,0.85693359375-0.0732421875t0.9375-0.10986328125t0.91552734375-0.10986328125t0.76171875-0.0439453125q0.17578125,0,0.47607421875,0.0439453125t0.615234375,0.146484375t0.5419921875,0.25634765625t0.22705078125,0.35888671875q0,0.234375-0.43212890625,0.41748046875t-1.10595703125,0.29296875t-1.47216796875,0.15380859375t-1.54541015625,0.05859375t-1.34765625,0.0146484375l-0.849609375,0q-0.8056640625,0-1.17919921875-0.30029296875t-0.52001953125-0.78369140625q-0.1171875-0.3955078125-0.1025390625-0.8935546875l0-0.205078125z M28.076220703125,32.4345703125q0-0.6005859375,0.21240234375-1.0107421875t0.90087890625-0.41015625q0.263671875,0,0.6591796875,0.08056640625t0.4541015625,0.40283203125q0.146484375,0.8642578125,0.1611328125,1.875t0.1025390625,1.904296875q0.3369140625-0.6591796875,0.8642578125-1.4208984375t1.201171875-1.40625t1.46484375-1.0693359375t1.611328125-0.4248046875q0.05859375,0,0.2197265625,0.0439453125t0.30029296875,0.12451171875t0.16845703125,0.18310546875t-0.1611328125,0.1904296875q-0.05859375,0.17578125-0.2490234375,0.21240234375t-0.3369140625,0.03662109375q-0.087890625,0-0.2783203125-0.0732421875q-1.083984375,0.5712890625-1.845703125,1.552734375t-1.2451171875,2.17529296875t-0.703125,2.51953125t-0.2197265625,2.58544921875q0,0.6298828125-0.28564453125,0.76171875t-0.91552734375,0.1318359375q-0.3369140625,0-0.71044921875-0.0732421875t-0.52001953125-0.46875q-0.263671875-0.8349609375-0.43212890625-1.9189453125t-0.25634765625-2.23388671875t-0.12451171875-2.26318359375t-0.03662109375-2.0068359375z M37.88583984375,27.234375q0-0.205078125,0.439453125-0.3515625t0.99609375-0.24169921875t1.07666015625-0.13916015625t0.71044921875-0.0732421875q0-0.3955078125,0.029296875-0.79833984375t0.1611328125-0.7177734375t0.41748046875-0.50537109375t0.79833984375-0.1904296875q0.4248046875,0,0.64453125,0.1025390625t0.46875,0.4248046875q0.05859375,0.17578125,0.05859375,0.3369140625l0,0.49072265625t-0.029296875,0.50537109375q0.5419921875-0.05859375,1.07666015625-0.13916015625t1.07666015625-0.08056640625q0.3955078125,0,0.5419921875,0.0146484375t0.29296875,0.3515625q0.1171875,0.3369140625-0.28564453125,0.5126953125t-0.966796875,0.263671875t-1.12060546875,0.1318359375t-0.673828125,0.0439453125q-0.17578125,2.51953125-0.35888671875,4.9951171875t-0.18310546875,5.0244140625q0,1.142578125,0.0732421875,2.3583984375t0.41015625,2.2998046875q0.087890625,0.3369140625,0.29296875,0.6298828125t0.205078125,0.6298828125q0,0.205078125-0.1611328125,0.322265625t-0.38818359375,0.19775390625t-0.4541015625,0.09521484375t-0.37353515625,0.0146484375q-0.9228515625,0-1.40625-0.6884765625t-0.69580078125-1.64794921875t-0.22705078125-1.97021484375t-0.0146484375-1.640625q0-1.2890625,0.05126953125-2.63671875t0.12451171875-2.666015625t0.205078125-2.578125t0.3076171875-2.34375q-0.5126953125,0.05859375-1.00341796875,0.1318359375t-1.00341796875,0.0732421875q-0.1171875,0-0.31494140625-0.0146484375t-0.37353515625-0.0732421875t-0.30029296875-0.1611328125t-0.12451171875-0.29296875z M48.794091796875,36.814453125q0-0.8349609375,0.21240234375-1.72119140625t0.673828125-1.5966796875t1.16455078125-1.1572265625t1.69921875-0.44677734375q0.7470703125,0,1.57470703125,0.25634765625t1.51611328125,0.732421875t1.12060546875,1.16455078125t0.43212890625,1.5380859375q0,1.025390625-0.37353515625,1.9482421875t-1.04736328125,1.64794921875t-1.57470703125,1.142578125t-1.95556640625,0.41748046875q-0.8642578125,0-1.5087890625-0.31494140625t-1.07666015625-0.84228515625t-0.64453125-1.2451171875t-0.21240234375-1.5234375z M50.947412109375,36.78515625q0,0.263671875,0.08056640625,0.7763671875t0.24169921875,1.00341796875t0.41748046875,0.849609375t0.62255859375,0.32958984375q0.7763671875-0.087890625,1.28173828125-0.50537109375t0.8203125-1.01806640625t0.439453125-1.3037109375t0.12451171875-1.3330078125q0-0.8056640625-0.31494140625-1.34765625t-1.03271484375-0.87890625q0,0.029296875,0.029296875,0.029296875t0.029296875-0.029296875l-0.3662109375-0.087890625q-0.146484375-0.05859375-0.35888671875-0.1318359375t-0.41748046875-0.322265625q-0.5712890625,0.205078125-0.88623046875,0.52734375t-0.47607421875,0.78369140625t-0.19775390625,1.10595703125t-0.03662109375,1.552734375z M59.9220703125,39.626953125q-0.0146484375-0.439453125-0.0146484375-0.87890625q0-1.376953125,0.146484375-2.7685546875q0.17578125-1.845703125,0.234375-3.6328125q0.05859375-2.0947265625,0.17578125-4.3505859375q0.0732421875-1.23046875,0.0732421875-2.431640625q0-0.9814453125-0.0439453125-1.9482421875q0.146484375-0.3369140625,0.38818359375-0.4541015625t0.60791015625-0.1171875q0.17578125,0,0.37353515625,0.029296875t0.34423828125,0.146484375q0.205078125,0.029296875,0.50537109375,0.05859375t0.46142578125,0.17578125q0.05859375,0.087890625,0.30029296875,0.6005859375t0.5712890625,1.2451171875t0.6884765625,1.58935546875t0.6884765625,1.6259765625t0.5712890625,1.35498046875t0.30029296875,0.732421875q1.376953125-2.490234375,2.6953125-5.11962890625t2.8857421875-4.95849609375q0.146484375-0.205078125,0.50537109375-0.30029296875t0.59326171875-0.09521484375q0.6298828125,0,0.91552734375,0.30029296875t0.37353515625,0.76904296875q0.05859375,0.29296875,0.0732421875,0.6298828125q0.0146484375,0.17578125-0.0146484375,0.3662109375q-0.05859375,0.5419921875-0.05859375,1.025390625q0,3.4130859375-0.234375,6.77490234375t-0.4248046875,6.78955078125q-0.029296875,0.703125-0.029296875,1.46484375t0.029296875,1.58203125q0.0146484375,0.29296875,0.0146484375,0.5712890625q0,1.2890625-0.2197265625,2.40234375q-0.205078125,0.3369140625-0.673828125,0.4248046875t-0.791015625,0.087890625q-0.6884765625,0-1.318359375-0.322265625l-0.1611328125-0.1904296875l-0.05859375-0.234375t-0.029296875-0.234375q0-2.1240234375,0.15380859375-4.27734375t0.34423828125-4.29931640625t0.40283203125-4.28466796875t0.35888671875-4.27734375q-0.8642578125,1.435546875-1.67724609375,2.92236328125t-1.53076171875,3.02490234375q-0.263671875,0.6005859375-0.50537109375,1.2890625t-0.57861328125,1.23046875q-0.17578125,0.263671875-0.59326171875,0.322265625t-0.72509765625,0.05859375q-0.29296875,0-0.60791015625-0.1025390625t-0.43212890625-0.439453125q-0.5419921875-1.6552734375-1.1572265625-3.2373046875t-1.2451171875-3.2080078125q0,1.083984375,0.0439453125,2.80517578125t0.0439453125,3.56689453125t-0.05859375,3.5302734375t-0.2783203125,2.666015625q-0.05859375,0.3662109375-0.47607421875,0.4541015625t-0.72509765625,0.087890625q-0.234375,0-0.44677734375-0.029296875t-0.41748046875-0.1171875z M77.319580078125,21.5654296875q0-0.234375,0.16845703125-0.38818359375t0.3955078125-0.24169921875t0.498046875-0.1171875t0.47607421875-0.029296875q0.4248046875,0,0.90087890625,0.1171875t0.71044921875,0.5126953125q0.4248046875,0.7177734375,0.62255859375,1.70654296875t0.37353515625,1.89697265625q0.263671875,1.259765625,0.673828125,2.63671875t0.85693359375,2.80517578125t0.91552734375,2.80517578125t0.8203125,2.578125q0.4248046875-1.7724609375,0.78369140625-3.6328125t0.6884765625-3.720703125t0.6884765625-3.720703125t0.78369140625-3.6474609375q0.087890625-0.4248046875,0.1318359375-1.0693359375t0.18310546875-1.2451171875t0.40283203125-1.03271484375t0.8056640625-0.43212890625q0.5712890625,0,0.76904296875,0.31494140625t0.19775390625,0.91552734375q-0.146484375,1.6552734375-0.47607421875,3.28125t-0.60791015625,3.251953125q-0.3955078125,2.0068359375-0.85693359375,4.02099609375t-0.8642578125,4.03564453125t-0.6884765625,4.05029296875t-0.34423828125,4.06494140625q0.029296875,0.087890625,0.087890625,0.205078125t0.05859375,0.17578125q0,0.17578125-0.1611328125,0.32958984375t-0.40283203125,0.263671875t-0.52734375,0.16845703125t-0.53466796875,0.05859375q-0.234375,0-0.53466796875-0.029296875t-0.6005859375-0.10986328125t-0.52734375-0.21240234375t-0.28564453125-0.3369140625q-0.234375-0.6884765625-0.43212890625-1.34033203125t-0.37353515625-1.34033203125q-0.8349609375-3.0029296875-1.75048828125-5.89599609375t-1.69189453125-5.88134765625q-0.3662109375-1.34765625-0.54931640625-2.64404296875t-0.59326171875-2.55615234375q0.05859375,0.1171875,0.05859375,0.1904296875q-0.05859375-0.205078125-0.1171875-0.38818359375t-0.1318359375-0.40283203125q0,0.05859375,0.0146484375,0.0732421875t0.0146484375,0.0439453125q0-0.029296875-0.0146484375-0.0439453125t-0.0146484375-0.0439453125z M93.16435546875,37.3271484375q0-3.1787109375,0.28564453125-6.36474609375t1.19384765625-6.27685546875q0.263671875-0.9228515625,0.6884765625-1.82373046875t1.0400390625-1.60400390625t1.46484375-1.142578125t2.021484375-0.439453125l0.3076171875,0.029296875q1.259765625,0.17578125,1.8603515625,1.01806640625t0.6005859375,2.10205078125q0,0.3369140625-0.08056640625,0.84228515625t-0.25634765625,0.97412109375t-0.47607421875,0.79833984375t-0.75439453125,0.32958984375q-0.205078125-0.029296875-0.37353515625-0.0732421875t-0.31494140625-0.1904296875q0.234375-0.5126953125,0.41748046875-1.0693359375t0.18310546875-1.2744140625q0-0.263671875-0.0439453125-0.673828125t-0.16845703125-0.81298828125t-0.32958984375-0.703125t-0.5712890625-0.30029296875q-0.9228515625,0-1.552734375,1.03271484375t-1.0546875,2.63671875t-0.6298828125,3.544921875t-0.31494140625,3.75t-0.12451171875,3.2666015625t-0.0146484375,2.05810546875q0,0.703125-0.0146484375,1.552734375l0,0.1904296875q0.0146484375,0.7470703125,0.1025390625,1.4208984375q0.1171875,0.76171875,0.4541015625,1.318359375t1.0546875,0.64453125q0.2197265625,0.029296875,0.4248046875,0.029296875q0.849609375,0,1.5380859375-0.4833984375q0.849609375-0.6005859375,1.5087890625-1.56005859375t1.171875-2.109375t0.94482421875-2.17529296875t0.84228515625-1.69921875t0.849609375-0.673828125q0.146484375,0,0.439453125,0.05859375t0.29296875,0.2783203125q0,0.05859375-0.029296875,0.1611328125t-0.0732421875,0.1611328125q-0.3955078125,1.552734375-1.00341796875,3.22265625t-1.552734375,3.03955078125t-2.314453125,2.23388671875t-3.28857421875,0.8642578125q-1.376953125,0-2.23388671875-0.52001953125t-1.318359375-1.3916015625t-0.6298828125-1.97021484375t-0.16845703125-2.2265625z M108.77475585938,37.3271484375q0-3.1787109375,0.28564453125-6.36474609375t1.19384765625-6.27685546875q0.263671875-0.9228515625,0.6884765625-1.82373046875t1.0400390625-1.60400390625t1.46484375-1.142578125t2.021484375-0.439453125l0.3076171875,0.029296875q1.259765625,0.17578125,1.8603515625,1.01806640625t0.6005859375,2.10205078125q0,0.3369140625-0.08056640625,0.84228515625t-0.25634765625,0.97412109375t-0.47607421875,0.79833984375t-0.75439453125,0.32958984375q-0.205078125-0.029296875-0.37353515625-0.0732421875t-0.31494140625-0.1904296875q0.234375-0.5126953125,0.41748046875-1.0693359375t0.18310546875-1.2744140625q0-0.263671875-0.0439453125-0.673828125t-0.16845703125-0.81298828125t-0.32958984375-0.703125t-0.5712890625-0.30029296875q-0.9228515625,0-1.552734375,1.03271484375t-1.0546875,2.63671875t-0.6298828125,3.544921875t-0.31494140625,3.75t-0.12451171875,3.2666015625t-0.0146484375,2.05810546875q0,0.703125-0.0146484375,1.552734375l0,0.1904296875q0.0146484375,0.7470703125,0.1025390625,1.4208984375q0.1171875,0.76171875,0.4541015625,1.318359375t1.0546875,0.64453125q0.2197265625,0.029296875,0.4248046875,0.029296875q0.849609375,0,1.5380859375-0.4833984375q0.849609375-0.6005859375,1.5087890625-1.56005859375t1.171875-2.109375t0.94482421875-2.17529296875t0.84228515625-1.69921875t0.849609375-0.673828125q0.146484375,0,0.439453125,0.05859375t0.29296875,0.2783203125q0,0.05859375-0.029296875,0.1611328125t-0.0732421875,0.1611328125q-0.3955078125,1.552734375-1.00341796875,3.22265625t-1.552734375,3.03955078125t-2.314453125,2.23388671875t-3.28857421875,0.8642578125q-1.376953125,0-2.23388671875-0.52001953125t-1.318359375-1.3916015625t-0.6298828125-1.97021484375t-0.16845703125-2.2265625z M124.0921875,36.814453125q0-0.8349609375,0.21240234375-1.72119140625t0.673828125-1.5966796875t1.16455078125-1.1572265625t1.69921875-0.44677734375q0.7470703125,0,1.57470703125,0.25634765625t1.51611328125,0.732421875t1.12060546875,1.16455078125t0.43212890625,1.5380859375q0,1.025390625-0.37353515625,1.9482421875t-1.04736328125,1.64794921875t-1.57470703125,1.142578125t-1.95556640625,0.41748046875q-0.8642578125,0-1.5087890625-0.31494140625t-1.07666015625-0.84228515625t-0.64453125-1.2451171875t-0.21240234375-1.5234375z M126.2455078125,36.78515625q0,0.263671875,0.08056640625,0.7763671875t0.24169921875,1.00341796875t0.41748046875,0.849609375t0.62255859375,0.32958984375q0.7763671875-0.087890625,1.28173828125-0.50537109375t0.8203125-1.01806640625t0.439453125-1.3037109375t0.12451171875-1.3330078125q0-0.8056640625-0.31494140625-1.34765625t-1.03271484375-0.87890625q0,0.029296875,0.029296875,0.029296875t0.029296875-0.029296875l-0.3662109375-0.087890625q-0.146484375-0.05859375-0.35888671875-0.1318359375t-0.41748046875-0.322265625q-0.5712890625,0.205078125-0.88623046875,0.52734375t-0.47607421875,0.78369140625t-0.19775390625,1.10595703125t-0.03662109375,1.552734375z M135.19086914063,36.3603515625q0-1.142578125,0.24169921875-2.07275390625t0.76904296875-1.57470703125t1.38427734375-1.00341796875t2.08740234375-0.35888671875q0.6884765625,0,1.40625,0.18310546875t1.23046875,0.68115234375q0-0.29296875,0.05859375-1.20849609375t0.146484375-2.13134765625t0.18310546875-2.548828125t0.16845703125-2.4755859375t0.1318359375-1.9189453125t0.087890625-0.87890625q0.146484375-0.4248046875,0.5419921875-0.50537109375t0.7470703125-0.08056640625q0.9228515625,0,1.13525390625,0.29296875t0.21240234375,1.171875q0,3.2080078125-0.28564453125,6.38671875t-0.28564453125,6.38671875q0,2.0654296875,0.08056640625,4.15283203125t0.57861328125,4.10888671875l0.1611328125,0.146484375l0.087890625,0.263671875l-0.2197265625,0.3369140625q-0.556640625,0.3515625-1.2890625,0.3515625l-0.05859375,0q-0.7470703125,0-1.376953125-0.3515625q-0.234375-0.146484375-0.38818359375-0.87158203125t-0.24169921875-1.5966796875t-0.1318359375-1.67724609375t-0.0732421875-1.142578125q-0.5126953125,1.171875-1.39892578125,2.01416015625t-2.23388671875,0.84228515625q-1.0546875,0-1.728515625-0.4541015625t-1.04736328125-1.1572265625t-0.52734375-1.57470703125t-0.15380859375-1.73583984375z M136.96333007813,36.4482421875q0,0.3369140625,0.08056640625,0.99609375t0.25634765625,1.318359375t0.49072265625,1.171875t0.82763671875,0.5126953125q0.6884765625-0.3369140625,1.2451171875-1.12060546875t0.95947265625-1.728515625t0.6298828125-1.8896484375t0.22705078125-1.63330078125q0-0.8642578125-0.6298828125-1.435546875t-1.5087890625-0.5712890625q-0.263671875,0-0.53466796875,0.1025390625t-0.50537109375,0.234375q-0.5419921875,0.5126953125-0.84228515625,0.93017578125t-0.4541015625,0.8642578125t-0.19775390625,0.98876953125t-0.0439453125,1.259765625z M149.05810546875,36.1845703125q0-1.34765625,0.31494140625-2.64404296875t0.53466796875-2.58544921875q0.05859375-0.3369140625,0.46142578125-0.41748046875t0.68115234375-0.08056640625q0.4833984375,0,0.7763671875,0.146484375q0.1171875,0.05859375,0.2197265625,0.1318359375t0.1025390625,0.1904296875q0,1.259765625-0.30029296875,2.4609375t-0.30029296875,2.548828125q0,0.4541015625,0.06591796875,0.85693359375t0.12451171875,0.79833984375l0.087890625,0.4248046875q0,0.1171875,0.0146484375,0.205078125t0.0439453125,0.205078125q0,0.263671875-0.37353515625,0.35888671875t-0.65185546875,0.09521484375q-0.4248046875,0-0.78369140625-0.16845703125t-0.56396484375-0.57861328125l-0.205078125-0.4248046875q-0.17578125-0.3369140625-0.17578125-0.75439453125t-0.0732421875-0.76904296875z M149.99560546875,27.3662109375l0-0.2783203125q0-0.6884765625,0.34423828125-1.23046875t1.03271484375-0.5419921875q0.087890625,0,0.16845703125,0.0146484375t0.16845703125,0.0146484375q0.17578125,0.029296875,0.46142578125,0.13916015625t0.28564453125,0.34423828125l0,0.029296875q-0.05859375,0.1171875-0.0732421875,0.24169921875t-0.0732421875,0.21240234375l0.029296875-0.029296875q-0.17578125,0.4541015625-0.28564453125,0.732421875t-0.24169921875,0.44677734375t-0.32958984375,0.24169921875t-0.56396484375,0.0732421875q-0.05859375,0-0.205078125-0.0146484375t-0.31494140625-0.05859375t-0.28564453125-0.1171875t-0.1171875-0.2197265625z M155.46928710937,36.609375l0-0.4248046875q0-0.52734375,0.029296875-0.99609375q0.029296875-0.6591796875,0.029296875-1.083984375q0-0.234375,0.029296875-0.53466796875t0.146484375-0.47607421875q0.146484375-0.146484375,0.34423828125-0.30029296875t0.43212890625-0.15380859375q0.7470703125,0,1.171875,0.16845703125t0.4541015625,0.69580078125l0.05859375,0.4541015625q0.263671875-0.6298828125,0.703125-1.56005859375t1.01806640625-1.7724609375t1.3037109375-1.435546875t1.53076171875-0.59326171875q0.7470703125,0,1.23046875,0.703125t0.76904296875,1.79443359375t0.40283203125,2.431640625t0.1611328125,2.62939453125t0.05859375,2.35107421875t0.1025390625,1.60400390625q0.05859375,0.4541015625,0.19775390625,0.95947265625t0.13916015625,0.93017578125q0,0.1171875-0.16845703125,0.22705078125t-0.35888671875,0.18310546875t-0.38818359375,0.1171875t-0.28564453125,0.0439453125q-0.5712890625,0-0.81298828125-0.85693359375t-0.30029296875-2.14599609375t-0.05859375-2.79052734375t-0.1025390625-2.79052734375t-0.41748046875-2.14599609375t-1.00341796875-0.88623046875q-0.6298828125,0-1.3037109375,0.81298828125t-1.1572265625,2.16064453125q-0.46875,1.34765625-0.64453125,3.0615234375q-0.05859375,0.5419921875-0.05859375,1.083984375q0,1.1865234375,0.2490234375,2.373046875q0.029296875,0.205078125-0.16845703125,0.3076171875t-0.49072265625,0.1611328125t-0.59326171875,0.0732421875t-0.46142578125,0.0146484375q-0.5712890625,0-0.91552734375-0.40283203125t-0.53466796875-1.03271484375t-0.25634765625-1.41357421875t-0.08056640625-1.54541015625z M168.7798828125,36.0234375q0-0.8056640625,0.15380859375-1.72119140625t0.52734375-1.67724609375t1.03271484375-1.259765625t1.6845703125-0.498046875q0.6884765625,0,1.3330078125,0.22705078125t1.2158203125,0.62255859375q0.17578125-0.29296875,0.556640625-0.35888671875t0.673828125-0.06591796875q0.1171875,0,0.32958984375,0.0146484375t0.41748046875,0.087890625t0.35888671875,0.17578125t0.18310546875,0.29296875q0.1171875,1.025390625,0.1611328125,2.04345703125t0.1318359375,2.02880859375q0.146484375,1.8896484375,0.4541015625,3.7353515625t0.3076171875,3.7353515625q0,0.8935546875-0.08056640625,1.93359375t-0.4248046875,1.92626953125t-1.00341796875,1.47216796875t-1.8310546875,0.5859375q-1.0546875,0-1.61865234375-0.37353515625t-1.01806640625-1.25244140625q0.029296875-0.29296875,0.37353515625-0.38818359375t0.59326171875-0.09521484375q0.234375,0,0.47607421875,0.0439453125t0.38818359375,0.146484375l0.3662109375,0.234375q0.5419921875-1.11328125,0.6591796875-2.431640625t0.1171875-2.548828125q0-1.025390625-0.1025390625-2.02880859375t-0.205078125-2.01416015625q-1.025390625,1.8603515625-3.1201171875,1.8603515625q-0.966796875,0-1.57470703125-0.41015625t-0.9375-1.0400390625t-0.4541015625-1.4208984375t-0.12451171875-1.58203125z M170.581640625,36.1552734375q0,0.3662109375,0.029296875,0.94482421875t0.15380859375,1.13525390625t0.35888671875,0.95947265625t0.6591796875,0.40283203125q0.8056640625,0,1.2744140625-0.6298828125t0.73974609375-1.50146484375t0.43212890625-1.8017578125t0.41015625-1.53076171875q-0.029296875-0.205078125-0.029296875-0.40283203125l0-0.40283203125q-0.3369140625-0.6298828125-0.9814453125-1.09130859375t-1.3330078125-0.62255859375q-0.087890625-0.0146484375-0.1611328125-0.0146484375q-0.41015625,0-0.673828125,0.4833984375q-0.3369140625,0.5859375-0.52734375,1.39892578125t-0.27099609375,1.60400390625t-0.08056640625,1.0693359375z"/><path fill="#" d=""/></svg>
